<svg width="98" height="52" viewBox="0 0 98 52" fill="none" xmlns="http://www.w3.org/2000/svg">
<path fill-rule="evenodd" clip-rule="evenodd" d="M36.5703 0.592529C36.018 0.592529 35.5703 1.04024 35.5703 1.59253V5.86748C35.5703 6.41977 36.018 6.86748 36.5703 6.86748H72.8973C83.0242 6.86748 90.9777 14.6641 90.9777 24.757C90.9777 25.0425 91.2092 25.274 91.4948 25.274H96.757C97.0425 25.274 97.274 25.0425 97.274 24.757C97.274 11.2677 86.432 0.592529 72.8973 0.592529H36.5703Z" fill="#6B7B84" stroke="#80949F" stroke-width="0.5"/>
<path fill-rule="evenodd" clip-rule="evenodd" d="M7.10658 25.7122C7.10658 25.4702 6.91035 25.2739 6.66829 25.2739H1.16412C0.922059 25.2739 0.72583 25.4702 0.72583 25.7122C0.72583 39.3616 10.9491 50.6311 24.1685 51.3686L66.5101 51.4064C67.0628 51.4069 67.511 50.959 67.511 50.4064V45.8267C67.511 45.2745 67.0633 44.8267 66.511 44.8267H25.6263C15.3901 44.7984 7.10658 36.283 7.10658 25.7122Z" fill="#6B7B84" stroke="#80949F" stroke-width="0.5"/>
<path fill-rule="evenodd" clip-rule="evenodd" d="M28.1413 39.7924C30.8801 39.7924 33.1614 39.2603 35.4147 38.1655L35.5702 38.0199V30.1855L34.7271 31.2649C33.1046 33.0378 30.9257 34.0137 28.4606 34.0137C23.869 34.0137 19.2573 31.0459 19.2573 25.3738C19.2573 21.0874 22.4379 16.532 28.2991 16.532C29.4686 16.532 32.3128 16.8085 34.7229 19.368L35.5702 20.4117V12.6127L35.4215 12.4653C33.1256 11.3147 30.7841 10.7554 28.1134 10.7554C23.5465 10.7554 19.9818 11.9577 17.1436 14.4289C15.3433 15.9777 12.3406 19.4485 12.3406 25.2923C12.3406 29.6131 13.8791 32.9875 17.1666 35.9144C20.225 38.5962 23.616 39.7924 28.1413 39.7924Z" fill="#6B7B84"/>
<path d="M28.1413 39.7924C30.8801 39.7924 33.1614 39.2603 35.4147 38.1655L35.5702 38.0199V30.1855L34.7271 31.2649C33.1046 33.0378 30.9257 34.0137 28.4606 34.0137C23.869 34.0137 19.2573 31.0459 19.2573 25.3738C19.2573 21.0874 22.4379 16.532 28.2991 16.532C29.4686 16.532 32.3128 16.8085 34.7229 19.368L35.5702 20.4117V12.6127L35.4215 12.4653C33.1256 11.3147 30.7841 10.7554 28.1134 10.7554C23.5465 10.7554 19.9818 11.9577 17.1436 14.4289C15.3433 15.9777 12.3406 19.4485 12.3406 25.2923C12.3406 29.6131 13.8791 32.9875 17.1666 35.9144C20.225 38.5962 23.616 39.7924 28.1413 39.7924" stroke="#80949F" stroke-width="0.5"/>
<path fill-rule="evenodd" clip-rule="evenodd" d="M47.911 17.2887H49.2753C50.5268 17.2887 51.9532 17.357 53.0327 18.0928C53.5599 18.4694 54.4444 19.3411 54.4444 20.9244C54.4444 22.0945 53.9273 23.1436 53.0732 23.7982C51.9782 24.5931 50.6767 24.5475 49.6308 24.5475H47.911V17.2887ZM50.9767 29.8179C54.2081 29.8179 56.7375 28.8858 58.494 27.1298C60.6547 24.9735 60.9777 22.0073 60.9777 20.4435C60.9777 18.7703 60.5811 15.5066 57.9209 13.1435C55.7405 11.2328 53.414 10.7554 50.1322 10.7554H41.3777V39.7924H48.0363V29.8179H50.9767Z" fill="#6B7B84"/>
<path d="M47.911 17.2887V17.0387H47.661V17.2887H47.911ZM53.0327 18.0928L53.1781 17.8894L53.1735 17.8863L53.0327 18.0928ZM53.0732 23.7982L53.2201 24.0006L53.2253 23.9967L53.0732 23.7982ZM47.911 24.5475H47.661V24.7975H47.911V24.5475ZM58.494 27.1298L58.3174 26.9529L58.3173 26.953L58.494 27.1298ZM57.9209 13.1435L58.087 12.9566L58.0857 12.9555L57.9209 13.1435ZM41.3777 10.7554V10.5054H41.1277V10.7554H41.3777ZM41.3777 39.7924H41.1277V40.0424H41.3777V39.7924ZM48.0363 39.7924V40.0424H48.2863V39.7924H48.0363ZM48.0363 29.8179V29.5679H47.7863V29.8179H48.0363ZM47.911 17.5387H49.2753V17.0387H47.911V17.5387ZM49.2753 17.5387C50.5325 17.5387 51.8837 17.6122 52.8919 18.2994L53.1735 17.8863C52.0226 17.1018 50.5211 17.0387 49.2753 17.0387V17.5387ZM52.8874 18.2963C53.375 18.6446 54.1944 19.4494 54.1944 20.9244H54.6944C54.6944 19.2328 53.7447 18.2942 53.178 17.8894L52.8874 18.2963ZM54.1944 20.9244C54.1944 22.0204 53.7106 22.9947 52.9211 23.5998L53.2253 23.9967C54.144 23.2925 54.6944 22.1686 54.6944 20.9244H54.1944ZM52.9264 23.5959C51.909 24.3344 50.697 24.2975 49.6308 24.2975V24.7975C50.6563 24.7975 52.0474 24.8518 53.2201 24.0006L52.9264 23.5959ZM49.6308 24.2975H47.911V24.7975H49.6308V24.2975ZM48.161 24.5475V17.2887H47.661V24.5475H48.161ZM50.9767 30.0679C54.2566 30.0679 56.8561 29.1207 58.6708 27.3066L58.3173 26.953C56.6189 28.6509 54.1597 29.5679 50.9767 29.5679V30.0679ZM58.6706 27.3068C60.9027 25.0793 61.2277 22.0287 61.2277 20.4435H60.7277C60.7277 21.9859 60.4068 24.8678 58.3174 26.9529L58.6706 27.3068ZM61.2277 20.4435C61.2277 18.7422 60.826 15.3898 58.087 12.9566L57.7549 13.3304C60.3361 15.6233 60.7277 18.7983 60.7277 20.4435H61.2277ZM58.0857 12.9555C55.8398 10.9874 53.4415 10.5054 50.1322 10.5054V11.0054C53.3865 11.0054 55.6412 11.4782 57.7562 13.3315L58.0857 12.9555ZM50.1322 10.5054H41.3777V11.0054H50.1322V10.5054ZM41.1277 10.7554V39.7924H41.6277V10.7554H41.1277ZM41.3777 40.0424H48.0363V39.5424H41.3777V40.0424ZM48.2863 39.7924V29.8179H47.7863V39.7924H48.2863ZM48.0363 30.0679H50.9767V29.5679H48.0363V30.0679Z" fill="#80949F"/>
<path fill-rule="evenodd" clip-rule="evenodd" d="M80.9528 24.4687C79.5051 23.1861 77.4843 22.4425 75.1908 21.6713C73.5567 21.1027 72.6563 20.7894 72.056 20.2421C71.5822 19.8399 71.371 19.4033 71.371 18.8262C71.371 17.5622 72.2299 16.2113 74.6412 16.2113C76.2799 16.2113 77.6519 16.912 78.7194 18.293L79.1432 18.8414L82.6595 14.3656L82.3389 14.0445C80.1884 11.8924 77.3546 10.7554 74.1437 10.7554C67.6654 10.7554 64.7655 14.9699 64.7655 19.1468C64.7655 21.3882 65.5649 23.196 67.1364 24.5175C68.5434 25.7234 70.2593 26.3991 71.9052 26.9507L72.0912 27.0123C73.5528 27.4954 75.0643 27.9954 75.9671 28.8034C76.5952 29.3805 76.8751 30.0076 76.8751 30.8367C76.8751 32.7368 75.3788 34.0137 73.1518 34.0137C71.3914 34.0137 69.0733 33.1508 67.8469 30.7296L67.5261 30.0953L63.1555 34.1411L63.4133 34.5056C64.8077 36.4801 67.9542 39.7924 73.3591 39.7924C79.3188 39.7924 83.4814 35.9608 83.4814 30.4751C83.4814 27.3374 82.1049 25.4752 80.9528 24.4687Z" fill="#6B7B84"/>
<path d="M80.9528 24.4687C79.5051 23.1861 77.4843 22.4425 75.1908 21.6713C73.5567 21.1027 72.6563 20.7894 72.056 20.2421C71.5822 19.8399 71.371 19.4033 71.371 18.8262C71.371 17.5622 72.2299 16.2113 74.6412 16.2113C76.2799 16.2113 77.6519 16.912 78.7194 18.293L79.1432 18.8414L82.6595 14.3656L82.3389 14.0445C80.1884 11.8924 77.3546 10.7554 74.1437 10.7554C67.6654 10.7554 64.7655 14.9699 64.7655 19.1468C64.7655 21.3882 65.5649 23.196 67.1364 24.5175C68.5434 25.7234 70.2593 26.3991 71.9052 26.9507L72.0912 27.0123C73.5528 27.4954 75.0643 27.9954 75.9671 28.8034C76.5952 29.3805 76.8751 30.0076 76.8751 30.8367C76.8751 32.7368 75.3788 34.0137 73.1518 34.0137C71.3914 34.0137 69.0733 33.1508 67.8469 30.7296L67.5261 30.0953L63.1555 34.1411L63.4133 34.5056C64.8077 36.4801 67.9542 39.7924 73.3591 39.7924C79.3188 39.7924 83.4814 35.9608 83.4814 30.4751C83.4814 27.3374 82.1049 25.4752 80.9528 24.4687" stroke="#80949F" stroke-width="0.5"/>
</svg>
